<svg width="28" height="28" viewBox="0 0 28 28" fill="none" xmlns="http://www.w3.org/2000/svg">
<path fill-rule="evenodd" clip-rule="evenodd" d="M14 2C7.37 2 2 7.50583 2 14.3035C2 19.7478 5.435 24.3463 10.205 25.9765C10.805 26.0842 11.03 25.715 11.03 25.3921C11.03 25.0999 11.015 24.131 11.015 23.1005C8 23.6696 7.22 22.347 6.98 21.6549C6.845 21.3012 6.26 20.2092 5.75 19.917C5.33 19.6863 4.73 19.1173 5.735 19.1019C6.68 19.0865 7.355 19.9939 7.58 20.363C8.66 22.2239 10.385 21.701 11.075 21.3781C11.18 20.5783 11.495 20.04 11.84 19.7325C9.17 19.4249 6.38 18.3637 6.38 13.6576C6.38 12.3196 6.845 11.2123 7.61 10.351C7.49 10.0434 7.07 8.78232 7.73 7.09058C7.73 7.09058 8.735 6.76762 11.03 8.3517C11.99 8.07487 13.01 7.93645 14.03 7.93645C15.05 7.93645 16.07 8.07487 17.03 8.3517C19.325 6.75224 20.33 7.09058 20.33 7.09058C20.99 8.78232 20.57 10.0434 20.45 10.351C21.215 11.2123 21.68 12.3042 21.68 13.6576C21.68 18.3791 18.875 19.4249 16.205 19.7325C16.64 20.1169 17.015 20.8552 17.015 22.0086C17.015 23.6542 17 24.9768 17 25.3921C17 25.715 17.225 26.0995 17.825 25.9765C22.565 24.3463 26 19.7325 26 14.3035C26 7.50583 20.63 2 14 2Z" fill="white"/>
</svg>
