<svg width="42" height="45" viewBox="0 0 42 45" fill="none" xmlns="http://www.w3.org/2000/svg">
<g filter="url(#filter0_df_1822_104)">
<path d="M10.7625 11.3824C12.2938 12.3584 12.3569 13.6739 12.1971 14.2096C13.6613 13.0602 15.6777 12.5176 16.5028 12.3899C15.1584 11.5535 15.1883 9.94122 15.3713 9.23961C14.5227 9.87915 14.2832 10.8569 14.2696 11.2659C13.9179 10.5093 13.1315 9.9911 12.7822 9.82657C12.6823 10.6491 12.8546 11.4477 12.9533 11.7441C12.329 11.4773 11.2327 11.3918 10.7625 11.3824Z" fill="#D72424"/>
<path fill-rule="evenodd" clip-rule="evenodd" d="M11.8399 14.7345C11.6112 14.5789 11.5096 14.2932 11.5887 14.0281C11.6704 13.7542 11.7047 12.7358 10.4213 11.9179C10.1813 11.765 10.0724 11.471 10.1548 11.1987C10.2372 10.9263 10.4907 10.742 10.7752 10.7477C11.0328 10.7528 11.4489 10.7782 11.8857 10.8377C11.9691 10.849 12.0552 10.8618 12.1429 10.8764C12.1104 10.5329 12.104 10.1452 12.152 9.75004C12.1765 9.5477 12.2968 9.36946 12.4752 9.27088C12.6536 9.1723 12.8685 9.16536 13.0529 9.25223C13.2805 9.35948 13.6126 9.56182 13.9393 9.84306C13.963 9.8635 13.9869 9.8845 14.0109 9.90607C14.2198 9.49687 14.5326 9.07668 14.9892 8.7326C15.2049 8.56996 15.5 8.56173 15.7246 8.71208C15.9491 8.86243 16.0539 9.13842 15.9857 9.39989C15.9167 9.66419 15.8711 10.1379 15.9829 10.6212C16.0913 11.09 16.3393 11.5404 16.8383 11.8509C17.0637 11.9911 17.1781 12.2569 17.1249 12.5171C17.0718 12.7772 16.8624 12.9768 16.5999 13.0174C15.8331 13.136 13.9355 13.6522 12.5892 14.7091C12.3716 14.8799 12.0685 14.8902 11.8399 14.7345ZM14.4789 10.405C14.3325 10.7549 14.2761 11.0734 14.2696 11.2659C14.1422 10.9918 13.9578 10.749 13.7577 10.543C13.6375 10.4192 13.5116 10.3086 13.3891 10.2126C13.1528 10.0272 12.929 9.89571 12.7823 9.8266C12.7526 10.0707 12.7469 10.3128 12.7562 10.5402C12.7631 10.7099 12.7783 10.8714 12.7981 11.0197C12.8412 11.342 12.9058 11.6014 12.9533 11.7442C12.7533 11.6587 12.5049 11.5918 12.2441 11.5401C12.1297 11.5174 12.0129 11.4976 11.8968 11.4805C11.4514 11.4147 11.016 11.3875 10.7625 11.3825C11.1068 11.6019 11.3769 11.8385 11.5869 12.0795C11.9818 12.5328 12.1643 13.0017 12.2285 13.4018C12.2821 13.7352 12.2534 14.0209 12.1971 14.2097C12.4181 14.0362 12.6516 13.8766 12.8917 13.7301C13.8454 13.1483 14.9031 12.7741 15.6891 12.5662C16.0165 12.4796 16.2968 12.4218 16.5029 12.39C16.2563 12.2366 16.056 12.0571 15.8944 11.862C15.4829 11.3652 15.3221 10.7668 15.2877 10.2382C15.262 9.84202 15.3073 9.4851 15.3713 9.23964C15.0482 9.48311 14.8135 9.7756 14.6458 10.0671C14.5804 10.1809 14.5252 10.2945 14.4789 10.405Z" fill="#B83D53"/>
<path fill-rule="evenodd" clip-rule="evenodd" d="M12.1971 14.2096C12.3569 13.6739 12.2938 12.3584 10.7625 11.3824C10.9974 11.3871 11.3887 11.4108 11.7992 11.4666C12.7631 12.2827 12.902 13.2332 12.823 13.7724C12.607 13.9072 12.3969 14.0528 12.1971 14.2096ZM14.4413 12.9732C15.2904 12.6426 16.0646 12.4577 16.5028 12.3899C16.4541 12.3596 16.4072 12.3283 16.3621 12.2961C15.8206 12.4343 15.136 12.6552 14.4413 12.9732ZM15.2927 9.71691C15.3083 9.53338 15.3371 9.37062 15.3713 9.23961C14.9117 9.58597 14.6308 10.0315 14.4677 10.4322C14.6185 10.6065 14.7541 10.8029 14.8544 11.0187C14.8635 10.7471 14.9722 10.2246 15.2927 9.71691ZM13.3376 10.1728C13.1205 10.0083 12.9182 9.89063 12.7822 9.82657C12.7158 10.3738 12.7698 10.9104 12.8424 11.2956C13.0983 11.3469 13.3416 11.413 13.5381 11.497C13.4636 11.2732 13.3472 10.7632 13.3376 10.1728Z" fill="#FE3434"/>
<path d="M24.1935 17.0667C25.8315 20.9427 24.0173 25.4126 20.1414 27.0507C16.2654 28.6887 11.7954 26.8746 10.1574 22.9986C8.51931 19.1226 10.3335 14.6526 14.2095 13.0146C18.0854 11.3765 22.5554 13.1907 24.1935 17.0667Z" fill="#FE3434"/>
<path fill-rule="evenodd" clip-rule="evenodd" d="M24.7783 16.8195C26.5528 21.0185 24.5875 25.8609 20.3885 27.6355C16.1895 29.4101 11.347 27.4447 9.57249 23.2457C7.79794 19.0468 9.76331 14.2043 13.9623 12.4297C18.1612 10.6552 23.0037 12.6205 24.7783 16.8195ZM20.1413 27.0507C24.0173 25.4126 25.8315 20.9426 24.1934 17.0667C22.5554 13.1907 18.0854 11.3765 14.2094 13.0145C10.3335 14.6526 8.51928 19.1226 10.1573 22.9986C11.7954 26.8745 16.2654 28.6887 20.1413 27.0507Z" fill="#B83D53"/>
<path fill-rule="evenodd" clip-rule="evenodd" d="M20.1414 27.0507C24.0173 25.4126 25.8315 20.9427 24.1935 17.0667C22.5554 13.1907 18.0854 11.3765 14.2095 13.0146C12.5468 13.7173 11.2635 14.9411 10.4694 16.4156C11.0872 15.4413 11.9976 14.6386 13.1407 14.1555C16.1285 12.8929 19.5741 14.2913 20.8367 17.279C22.0994 20.2668 20.701 23.7124 17.7132 24.975C14.7255 26.2377 11.2799 24.8393 10.0172 21.8515C9.7357 21.1853 9.58646 20.4964 9.55764 19.814C9.52656 20.8741 9.71749 21.9578 10.1574 22.9986C11.7954 26.8746 16.2654 28.6887 20.1414 27.0507Z" fill="#D72424"/>
<path d="M21.6249 16.7806C21.7562 17.0914 21.6108 17.4499 21.3 17.5812C20.9892 17.7126 20.6307 17.5671 20.4994 17.2563C20.368 16.9455 20.5135 16.5871 20.8243 16.4557C21.1351 16.3244 21.4935 16.4698 21.6249 16.7806Z" fill="#B42222"/>
<path d="M23.3015 16.9949C23.4329 17.3057 23.2874 17.6641 22.9766 17.7955C22.6658 17.9268 22.3074 17.7813 22.176 17.4705C22.0447 17.1597 22.1901 16.8013 22.5009 16.6699C22.8117 16.5386 23.1702 16.6841 23.3015 16.9949Z" fill="#B42222"/>
<path d="M22.2472 15.2848C22.3457 15.5179 22.2366 15.7867 22.0035 15.8852C21.7704 15.9838 21.5016 15.8747 21.403 15.6416C21.3045 15.4084 21.4136 15.1396 21.6467 15.0411C21.8798 14.9426 22.1487 15.0517 22.2472 15.2848Z" fill="#B42222"/>
<path d="M23.7914 19.1093C23.9227 19.4201 23.7773 19.7786 23.4665 19.9099C23.1557 20.0413 22.7972 19.8958 22.6659 19.585C22.5345 19.2742 22.68 18.9157 22.9908 18.7844C23.3016 18.653 23.66 18.7985 23.7914 19.1093Z" fill="#B42222"/>
<path d="M22.1147 18.895C22.2461 19.2058 22.1006 19.5643 21.7898 19.6956C21.479 19.827 21.1206 19.6815 20.9892 19.3707C20.8579 19.0599 21.0034 18.7014 21.3142 18.5701C21.625 18.4387 21.9834 18.5842 22.1147 18.895Z" fill="#B42222"/>
<path d="M23.8602 21.1709C24.0308 21.5747 23.8418 22.0403 23.4381 22.2109C23.0343 22.3816 22.5687 22.1926 22.3981 21.7888C22.2274 21.3851 22.4164 20.9195 22.8202 20.7488C23.2239 20.5782 23.6895 20.7672 23.8602 21.1709Z" fill="#B42222"/>
<path d="M21.4425 21.1588C21.5448 21.401 21.4314 21.6804 21.1892 21.7828C20.9469 21.8851 20.6676 21.7718 20.5652 21.5295C20.4628 21.2873 20.5762 21.0079 20.8185 20.9055C21.0607 20.8031 21.3401 20.9165 21.4425 21.1588Z" fill="#B42222"/>
<path d="M21.3238 25.2118C21.4037 25.401 21.3152 25.6191 21.126 25.6991C20.9368 25.779 20.7186 25.6905 20.6387 25.5013C20.5587 25.3121 20.6473 25.0939 20.8364 25.014C21.0256 24.934 21.2438 25.0226 21.3238 25.2118Z" fill="#B42222"/>
<path d="M23.0777 23.3972C23.2142 23.7202 23.063 24.0927 22.7401 24.2292C22.4171 24.3657 22.0446 24.2145 21.9081 23.8915C21.7715 23.5685 21.9227 23.196 22.2457 23.0595C22.5687 22.923 22.9412 23.0742 23.0777 23.3972Z" fill="#B42222"/>
<path d="M21.4137 22.7218C21.482 22.8833 21.4064 23.0696 21.2449 23.1378C21.0834 23.2061 20.8972 23.1305 20.8289 22.969C20.7607 22.8075 20.8362 22.6212 20.9977 22.553C21.1592 22.4847 21.3455 22.5603 21.4137 22.7218Z" fill="#B42222"/>
<path d="M14.2434 15.986C15.085 16.617 15 18.1521 14.0534 19.4146C13.1067 20.6771 11.6571 21.1889 10.8154 20.5579C9.97375 19.9268 10.0588 18.3918 11.0054 17.1293C11.952 15.8668 13.4017 15.3549 14.2434 15.986Z" fill="#FF7878"/>
<path fill-rule="evenodd" clip-rule="evenodd" d="M12.1033 17.7491C12.3911 17.9493 12.4622 18.345 12.262 18.6329C12.1092 18.8525 12.0156 19.0797 11.9733 19.3186C11.9122 19.6639 11.5827 19.8942 11.2374 19.833C10.8921 19.7719 10.6618 19.4424 10.7229 19.0971C10.7988 18.6687 10.9669 18.271 11.2195 17.9078C11.4197 17.62 11.8154 17.5489 12.1033 17.7491Z" fill="white"/>
</g>
<defs>
<filter id="filter0_df_1822_104" x="0.91925" y="0.604736" width="40.5123" height="43.684" filterUnits="userSpaceOnUse" color-interpolation-filters="sRGB">
<feFlood flood-opacity="0" result="BackgroundImageFix"/>
<feColorMatrix in="SourceAlpha" type="matrix" values="0 0 0 0 0 0 0 0 0 0 0 0 0 0 0 0 0 0 127 0" result="hardAlpha"/>
<feOffset dx="4" dy="4"/>
<feGaussianBlur stdDeviation="6"/>
<feComposite in2="hardAlpha" operator="out"/>
<feColorMatrix type="matrix" values="0 0 0 0 0 0 0 0 0 0 0 0 0 0 0 0 0 0 0.1 0"/>
<feBlend mode="normal" in2="BackgroundImageFix" result="effect1_dropShadow_1822_104"/>
<feBlend mode="normal" in="SourceGraphic" in2="effect1_dropShadow_1822_104" result="shape"/>
<feGaussianBlur stdDeviation="1" result="effect2_foregroundBlur_1822_104"/>
</filter>
</defs>
</svg>
