<svg width="42" height="44" viewBox="0 0 42 44" fill="none" xmlns="http://www.w3.org/2000/svg">
<g filter="url(#filter0_df_1822_84)">
<path d="M20.1579 8.91891C20.3231 10.7272 19.3213 11.5822 18.7998 11.7836C20.6049 12.2383 22.2679 13.501 22.8738 14.0755C22.7126 12.5003 24.0061 11.5373 24.673 11.2527C23.6479 10.9729 22.728 11.3819 22.3963 11.6213C22.7794 10.8802 22.708 9.94112 22.6244 9.56422C21.9127 9.98855 21.3866 10.6135 21.2125 10.8729C21.0415 10.2159 20.4382 9.29651 20.1579 8.91891Z" fill="#D72424"/>
<path fill-rule="evenodd" clip-rule="evenodd" d="M18.166 11.8222C18.1492 11.5462 18.313 11.2909 18.571 11.1913C18.8377 11.0883 19.6641 10.4922 19.5256 8.97666C19.4997 8.69328 19.6656 8.42729 19.9314 8.32577C20.1972 8.22424 20.4981 8.31198 20.6677 8.54047C20.8213 8.74737 21.0558 9.09198 21.2761 9.47384C21.3182 9.5467 21.3608 9.6227 21.4028 9.70092C21.6546 9.46502 21.9573 9.22272 22.2993 9.01886C22.4743 8.91448 22.6889 8.90049 22.876 8.98126C23.0632 9.06204 23.2001 9.22774 23.2443 9.42674C23.2988 9.67243 23.3419 10.0589 23.3194 10.4894C23.3178 10.5206 23.3158 10.5524 23.3134 10.5845C23.7649 10.4994 24.2886 10.4897 24.8401 10.6402C25.1008 10.7113 25.2879 10.9397 25.3064 11.2093C25.3249 11.4789 25.1707 11.7306 24.9222 11.8367C24.671 11.9439 24.2684 12.1977 23.9546 12.5818C23.6501 12.9545 23.4456 13.4262 23.5055 14.0108C23.5325 14.275 23.3923 14.5281 23.154 14.6453C22.9157 14.7624 22.6297 14.7189 22.437 14.5362C21.8739 14.0023 20.3045 12.8173 18.6447 12.3993C18.3765 12.3317 18.1829 12.0983 18.166 11.8222ZM23.2052 11.2601C22.8389 11.3584 22.5524 11.5086 22.3963 11.6213C22.5351 11.3528 22.6142 11.0584 22.6547 10.7741C22.6791 10.6032 22.6895 10.436 22.6905 10.2804C22.6925 9.98002 22.6595 9.72252 22.6244 9.56421C22.4132 9.69015 22.2183 9.83377 22.0441 9.98025C21.9141 10.0896 21.7957 10.2005 21.6905 10.3068C21.4619 10.5382 21.2963 10.7479 21.2125 10.8729C21.1577 10.6624 21.0586 10.425 20.9399 10.1871C20.8878 10.0827 20.832 9.97826 20.7745 9.87593C20.554 9.48346 20.309 9.12245 20.1579 8.9189C20.1951 9.32549 20.1732 9.68388 20.1111 9.99748C19.9943 10.5871 19.7351 11.0184 19.458 11.3141C19.227 11.5605 18.9836 11.7126 18.7998 11.7836C19.0721 11.8522 19.3413 11.9392 19.6041 12.0395C20.6479 12.4377 21.5911 13.0452 22.2365 13.5397C22.5054 13.7457 22.7226 13.932 22.8738 14.0755C22.8443 13.7866 22.8636 13.5184 22.9191 13.2711C23.0602 12.6417 23.4351 12.1483 23.8321 11.7977C24.1297 11.5349 24.4397 11.3523 24.673 11.2527C24.2827 11.1462 23.9077 11.1395 23.5746 11.1853C23.4446 11.2031 23.3209 11.229 23.2052 11.2601Z" fill="#B83D53"/>
<path fill-rule="evenodd" clip-rule="evenodd" d="M18.7998 11.7836C19.3213 11.5822 20.3231 10.7272 20.1579 8.91891C20.298 9.10757 20.5186 9.4315 20.7257 9.79037C20.6701 11.0521 20.0034 11.7436 19.5286 12.0111C19.2898 11.9227 19.0461 11.8456 18.7998 11.7836ZM21.151 12.8019C21.9321 13.2711 22.5521 13.7704 22.8738 14.0755C22.868 14.0184 22.8641 13.9622 22.8619 13.9067C22.4213 13.5631 21.8276 13.1567 21.151 12.8019ZM24.2474 11.4827C24.4021 11.3826 24.5484 11.3059 24.673 11.2527C24.1178 11.1012 23.5935 11.1517 23.1768 11.2678C23.1312 11.4938 23.0589 11.7213 22.9496 11.9326C23.17 11.7736 23.6497 11.5398 24.2474 11.4827ZM22.6904 10.2153C22.6877 9.94297 22.657 9.71097 22.6244 9.56422C22.1509 9.84651 21.7596 10.2176 21.4994 10.5108C21.6153 10.7446 21.712 10.9774 21.7658 11.1842C21.8973 10.9884 22.2293 10.5842 22.6904 10.2153Z" fill="#FE3434"/>
<path d="M23.8812 23.0199C21.818 26.6873 17.1725 27.9878 13.5051 25.9247C9.83772 23.8615 8.5372 19.216 10.6003 15.5486C12.6634 11.8812 17.309 10.5807 20.9764 12.6438C24.6438 14.7069 25.9443 19.3525 23.8812 23.0199Z" fill="#FE3434"/>
<path fill-rule="evenodd" clip-rule="evenodd" d="M24.4345 23.3311C22.1995 27.3042 17.1668 28.7131 13.1938 26.478C9.2208 24.243 7.8119 19.2103 10.047 15.2373C12.282 11.2643 17.3146 9.85539 21.2877 12.0904C25.2607 14.3255 26.6696 19.3581 24.4345 23.3311ZM13.5051 25.9246C17.1725 27.9878 21.818 26.6872 23.8812 23.0198C25.9443 19.3524 24.6438 14.7069 20.9764 12.6438C17.309 10.5807 12.6634 11.8812 10.6003 15.5486C8.5372 19.216 9.83772 23.8615 13.5051 25.9246Z" fill="#B83D53"/>
<path fill-rule="evenodd" clip-rule="evenodd" d="M13.5051 25.9247C17.1725 27.9878 21.818 26.6873 23.8812 23.0199C25.9443 19.3525 24.6438 14.7069 20.9764 12.6438C19.4031 11.7588 17.6499 11.4927 15.9978 11.767C17.1464 11.6594 18.3384 11.8883 19.42 12.4968C22.2469 14.0871 23.2494 17.668 21.6591 20.495C20.0688 23.3219 16.4879 24.3244 13.6609 22.7341C10.8339 21.1437 9.83146 17.5628 11.4218 14.7359C11.7764 14.1055 12.23 13.5659 12.7521 13.1255C11.8946 13.7497 11.1543 14.5638 10.6003 15.5486C8.5372 19.216 9.83772 23.8615 13.5051 25.9247Z" fill="#D72424"/>
<path d="M22.5355 20.8133C22.3701 21.1074 21.9976 21.2116 21.7035 21.0462C21.4094 20.8808 21.3052 20.5083 21.4706 20.2142C21.636 19.9201 22.0085 19.8158 22.3026 19.9812C22.5967 20.1467 22.701 20.5192 22.5355 20.8133Z" fill="#B42222"/>
<path d="M23.3921 22.2704C23.2267 22.5645 22.8542 22.6688 22.5601 22.5034C22.266 22.3379 22.1617 21.9654 22.3272 21.6713C22.4926 21.3773 22.8651 21.273 23.1592 21.4384C23.4533 21.6038 23.5575 21.9763 23.3921 22.2704Z" fill="#B42222"/>
<path d="M24.0994 20.3901C23.9754 20.6107 23.696 20.6889 23.4754 20.5648C23.2549 20.4407 23.1767 20.1614 23.3007 19.9408C23.4248 19.7202 23.7042 19.642 23.9247 19.7661C24.1453 19.8902 24.2235 20.1696 24.0994 20.3901Z" fill="#B42222"/>
<path d="M22.0196 23.9518C21.8541 24.2458 21.4816 24.3501 21.1875 24.1847C20.8935 24.0193 20.7892 23.6467 20.9546 23.3527C21.12 23.0586 21.4925 22.9543 21.7866 23.1197C22.0807 23.2852 22.185 23.6577 22.0196 23.9518Z" fill="#B42222"/>
<path d="M21.163 22.4946C20.9976 22.7887 20.625 22.893 20.331 22.7275C20.0369 22.5621 19.9326 22.1896 20.098 21.8955C20.2635 21.6014 20.636 21.4971 20.9301 21.6626C21.2241 21.828 21.3284 22.2005 21.163 22.4946Z" fill="#B42222"/>
<path d="M20.4311 25.2678C20.2162 25.6498 19.7322 25.7853 19.3502 25.5704C18.9682 25.3555 18.8327 24.8716 19.0476 24.4896C19.2625 24.1075 19.7465 23.9721 20.1285 24.187C20.5105 24.4019 20.646 24.8858 20.4311 25.2678Z" fill="#B42222"/>
<path d="M18.9612 23.3482C18.8323 23.5774 18.5419 23.6587 18.3127 23.5297C18.0835 23.4008 18.0022 23.1104 18.1311 22.8812C18.2601 22.652 18.5504 22.5707 18.7797 22.6997C19.0089 22.8286 19.0901 23.119 18.9612 23.3482Z" fill="#B42222"/>
<path d="M15.6831 25.7345C15.5824 25.9135 15.3556 25.977 15.1766 25.8763C14.9976 25.7756 14.9341 25.5488 15.0348 25.3698C15.1355 25.1908 15.3623 25.1273 15.5413 25.228C15.7203 25.3287 15.7838 25.5555 15.6831 25.7345Z" fill="#B42222"/>
<path d="M18.1916 26.0113C18.0196 26.3169 17.6325 26.4253 17.3269 26.2534C17.0213 26.0814 16.9129 25.6943 17.0848 25.3887C17.2567 25.0831 17.6439 24.9747 17.9495 25.1466C18.2551 25.3186 18.3635 25.7057 18.1916 26.0113Z" fill="#B42222"/>
<path d="M17.7074 24.282C17.6214 24.4348 17.4279 24.489 17.2751 24.403C17.1223 24.317 17.0681 24.1235 17.154 23.9707C17.24 23.8178 17.4336 23.7637 17.5864 23.8496C17.7392 23.9356 17.7934 24.1291 17.7074 24.282Z" fill="#B42222"/>
<path d="M18.647 14.489C18.663 15.5408 17.3968 16.4129 15.8191 16.4368C14.2413 16.4607 12.9493 15.6274 12.9334 14.5755C12.9175 13.5237 14.1836 12.6516 15.7614 12.6277C17.3391 12.6038 18.6311 13.4371 18.647 14.489Z" fill="#FF7878"/>
<path fill-rule="evenodd" clip-rule="evenodd" d="M15.9429 13.8752C15.9607 14.2255 15.6912 14.5238 15.341 14.5416C15.0738 14.5552 14.8369 14.6202 14.6221 14.7329C14.3116 14.8958 13.9278 14.7762 13.7649 14.4657C13.6019 14.1552 13.7216 13.7714 14.0321 13.6084C14.4173 13.4063 14.8348 13.2959 15.2765 13.2734C15.6267 13.2556 15.9251 13.525 15.9429 13.8752Z" fill="white"/>
</g>
<defs>
<filter id="filter0_df_1822_84" x="0.985352" y="0.283936" width="40.5109" height="43.2557" filterUnits="userSpaceOnUse" color-interpolation-filters="sRGB">
<feFlood flood-opacity="0" result="BackgroundImageFix"/>
<feColorMatrix in="SourceAlpha" type="matrix" values="0 0 0 0 0 0 0 0 0 0 0 0 0 0 0 0 0 0 127 0" result="hardAlpha"/>
<feOffset dx="4" dy="4"/>
<feGaussianBlur stdDeviation="6"/>
<feComposite in2="hardAlpha" operator="out"/>
<feColorMatrix type="matrix" values="0 0 0 0 0 0 0 0 0 0 0 0 0 0 0 0 0 0 0.1 0"/>
<feBlend mode="normal" in2="BackgroundImageFix" result="effect1_dropShadow_1822_84"/>
<feBlend mode="normal" in="SourceGraphic" in2="effect1_dropShadow_1822_84" result="shape"/>
<feGaussianBlur stdDeviation="2" result="effect2_foregroundBlur_1822_84"/>
</filter>
</defs>
</svg>
