<svg width="44" height="42" viewBox="0 0 44 42" fill="none" xmlns="http://www.w3.org/2000/svg">
<g filter="url(#filter0_df_1822_144)">
<path d="M26.4428 20.8377C24.6286 20.7596 23.9153 19.6525 23.7855 19.1087C23.0935 20.8368 21.6197 22.316 20.9693 22.8396C22.5519 22.8905 23.3333 24.3012 23.5261 25.0001C23.9405 24.0217 23.6582 23.0554 23.4653 22.6946C24.1485 23.1734 25.0887 23.2282 25.4734 23.1958C25.1481 22.4337 24.5991 21.8287 24.3653 21.6215C25.0392 21.5399 26.0311 21.065 26.4428 20.8377Z" fill="#D72424"/>
<path fill-rule="evenodd" clip-rule="evenodd" d="M23.8319 18.4755C24.1078 18.4957 24.3388 18.6922 24.403 18.9612C24.4694 19.2393 24.9497 20.138 26.4701 20.2035C26.7544 20.2157 26.9958 20.4156 27.0609 20.6926C27.1259 20.9696 26.9987 21.2561 26.7496 21.3936C26.524 21.5182 26.1512 21.7045 25.7433 21.8718C25.6655 21.9037 25.5844 21.9357 25.5013 21.967C25.7014 22.248 25.901 22.5804 26.0573 22.9465C26.1374 23.134 26.1225 23.3485 26.0175 23.5231C25.9124 23.6978 25.7299 23.8114 25.5267 23.8285C25.276 23.8496 24.8872 23.8407 24.4636 23.7609C24.4328 23.755 24.4016 23.7488 24.3701 23.7422C24.3941 24.201 24.3337 24.7213 24.1108 25.2478C24.0054 25.4966 23.7541 25.6515 23.4844 25.6337C23.2148 25.616 22.9859 25.4295 22.9141 25.1691C22.8414 24.9057 22.6437 24.4728 22.305 24.1105C21.9764 23.7589 21.5363 23.4932 20.9489 23.4743C20.6835 23.4657 20.4514 23.2929 20.3672 23.0411C20.2829 22.7893 20.3643 22.5116 20.5711 22.3451C21.1755 21.8586 22.5598 20.4617 23.1961 18.8727C23.2989 18.6159 23.5561 18.4553 23.8319 18.4755ZM23.7151 23.5446C23.6667 23.1684 23.5561 22.8644 23.4653 22.6946C23.7128 22.8681 23.994 22.9859 24.2704 23.0641C24.4364 23.111 24.6007 23.1437 24.7548 23.1656C25.0522 23.2077 25.3118 23.2094 25.4734 23.1958C25.3769 22.9696 25.2606 22.7573 25.1387 22.5651C25.0478 22.4217 24.9537 22.2894 24.8623 22.171C24.6637 21.9135 24.4779 21.7214 24.3653 21.6216C24.5812 21.5954 24.8298 21.5289 25.0814 21.4431C25.1918 21.4055 25.3028 21.3641 25.4119 21.3208C25.8303 21.1548 26.2209 20.9603 26.4428 20.8378C26.0349 20.8202 25.6826 20.7506 25.3802 20.6471C24.8114 20.4525 24.4187 20.138 24.1628 19.8238C23.9494 19.5619 23.8312 19.3004 23.7855 19.1087C23.6811 19.3695 23.5588 19.6246 23.4243 19.8716C22.89 20.8528 22.1618 21.7062 21.5855 22.2797C21.3454 22.5186 21.1317 22.7089 20.9693 22.8397C21.2595 22.849 21.5228 22.9041 21.7604 22.9921C22.3653 23.2161 22.8041 23.6536 23.0985 24.094C23.3191 24.424 23.4586 24.7556 23.5261 25.0002C23.6839 24.6277 23.7406 24.2569 23.7398 23.9207C23.7395 23.7894 23.7304 23.6634 23.7151 23.5446Z" fill="#B83D53"/>
<path fill-rule="evenodd" clip-rule="evenodd" d="M23.7855 19.1087C23.9153 19.6525 24.6286 20.7596 26.4428 20.8377C26.2371 20.9513 25.8866 21.1267 25.5032 21.2839C24.2602 21.0601 23.6641 20.3068 23.4625 19.8005C23.582 19.5757 23.691 19.3445 23.7855 19.1087ZM22.4618 21.3026C21.8924 22.0139 21.3147 22.5616 20.9693 22.8396C21.0266 22.8415 21.0829 22.8451 21.1381 22.8504C21.5376 22.4596 22.0197 21.9257 22.4618 21.3026ZM23.3551 24.5476C23.4336 24.7143 23.4901 24.8696 23.5261 25.0001C23.7505 24.4702 23.7706 23.9439 23.7112 23.5154C23.4934 23.44 23.2776 23.3379 23.0828 23.2013C23.2109 23.441 23.3784 23.9477 23.3551 24.5476ZM24.8193 23.1741C25.0896 23.2078 25.3236 23.2084 25.4734 23.1958C25.257 22.6888 24.9416 22.2513 24.6858 21.9543C24.4386 22.0379 24.1949 22.1026 23.9828 22.1283C24.1593 22.2847 24.5154 22.6678 24.8193 23.1741Z" fill="#FE3434"/>
<path d="M11.9705 22.6418C8.61195 20.1067 7.94439 15.329 10.4794 11.9705C13.0145 8.61195 17.7922 7.94439 21.1508 10.4794C24.5093 13.0145 25.1769 17.7922 22.6418 21.1508C20.1067 24.5093 15.329 25.1769 11.9705 22.6418Z" fill="#FE3434"/>
<path fill-rule="evenodd" clip-rule="evenodd" d="M11.588 23.1486C7.94957 20.4022 7.22638 15.2264 9.97269 11.588C12.719 7.94955 17.8949 7.22636 21.5333 9.97267C25.1717 12.719 25.8949 17.8948 23.1486 21.5333C20.4023 25.1717 15.2264 25.8949 11.588 23.1486ZM10.4795 11.9705C7.9444 15.329 8.61196 20.1067 11.9705 22.6418C15.329 25.1768 20.1067 24.5093 22.6418 21.1507C25.1769 17.7922 24.5093 13.0145 21.1508 10.4794C17.7922 7.94438 13.0145 8.61194 10.4795 11.9705Z" fill="#B83D53"/>
<path fill-rule="evenodd" clip-rule="evenodd" d="M10.4794 11.9705C7.94439 15.329 8.61195 20.1067 11.9705 22.6418C15.329 25.1769 20.1067 24.5093 22.6418 21.1508C23.7293 19.71 24.2274 18.0081 24.1766 16.3342C24.1296 17.4869 23.7433 18.6375 22.9957 19.628C21.0416 22.2169 17.3588 22.7315 14.7699 20.7774C12.181 18.8233 11.6664 15.1405 13.6205 12.5516C15.5747 9.9627 19.2575 9.44812 21.8463 11.4022C22.4236 11.8379 22.8977 12.3596 23.2643 12.9359C22.7605 12.0027 22.0526 11.1602 21.1508 10.4794C17.7922 7.94439 13.0145 8.61195 10.4794 11.9705Z" fill="#D72424"/>
<path d="M14.3373 21.6034C14.068 21.4001 14.0144 21.017 14.2177 20.7477C14.421 20.4784 14.8041 20.4249 15.0734 20.6281C15.3427 20.8314 15.3962 21.2145 15.193 21.4838C14.9897 21.7532 14.6066 21.8067 14.3373 21.6034Z" fill="#B42222"/>
<path d="M12.7787 22.2574C12.5094 22.0541 12.4558 21.671 12.6591 21.4017C12.8624 21.1324 13.2455 21.0789 13.5148 21.2821C13.7841 21.4854 13.8377 21.8685 13.6344 22.1378C13.4311 22.4072 13.048 22.4607 12.7787 22.2574Z" fill="#B42222"/>
<path d="M14.5475 23.2098C14.3455 23.0573 14.3054 22.77 14.4578 22.568C14.6103 22.366 14.8976 22.3259 15.0996 22.4783C15.3016 22.6308 15.3417 22.9181 15.1893 23.1201C15.0368 23.3221 14.7495 23.3622 14.5475 23.2098Z" fill="#B42222"/>
<path d="M11.296 20.6723C11.0267 20.469 10.9732 20.0859 11.1764 19.8166C11.3797 19.5473 11.7628 19.4938 12.0321 19.6971C12.3015 19.9003 12.355 20.2834 12.1517 20.5528C11.9484 20.8221 11.5653 20.8756 11.296 20.6723Z" fill="#B42222"/>
<path d="M12.8546 20.0183C12.5853 19.815 12.5318 19.4319 12.735 19.1626C12.9383 18.8933 13.3214 18.8398 13.5907 19.0431C13.86 19.2463 13.9136 19.6295 13.7103 19.8988C13.507 20.1681 13.1239 20.2216 12.8546 20.0183Z" fill="#B42222"/>
<path d="M10.2042 18.9221C9.85436 18.658 9.78483 18.1603 10.0489 17.8105C10.313 17.4606 10.8106 17.3911 11.1605 17.6552C11.5103 17.9192 11.5799 18.4169 11.3158 18.7668C11.0517 19.1166 10.5541 19.1861 10.2042 18.9221Z" fill="#B42222"/>
<path d="M12.3031 17.7222C12.0932 17.5637 12.0515 17.2651 12.2099 17.0552C12.3684 16.8453 12.667 16.8036 12.8769 16.962C13.0868 17.1205 13.1285 17.4191 12.9701 17.629C12.8116 17.8389 12.513 17.8806 12.3031 17.7222Z" fill="#B42222"/>
<path d="M10.3767 14.1543C10.2127 14.0306 10.1802 13.7974 10.3039 13.6335C10.4276 13.4695 10.6608 13.437 10.8248 13.5607C10.9887 13.6844 11.0213 13.9176 10.8975 14.0815C10.7738 14.2455 10.5406 14.2781 10.3767 14.1543Z" fill="#B42222"/>
<path d="M9.76691 16.6033C9.48703 16.3921 9.4314 15.9939 9.64266 15.714C9.85391 15.4342 10.2521 15.3785 10.5319 15.5898C10.8118 15.801 10.8674 16.1992 10.6562 16.4791C10.4449 16.7589 10.0468 16.8146 9.76691 16.6033Z" fill="#B42222"/>
<path d="M11.5454 16.3548C11.4054 16.2491 11.3776 16.0501 11.4833 15.9101C11.5889 15.7702 11.788 15.7424 11.9279 15.848C12.0678 15.9536 12.0956 16.1527 11.99 16.2926C11.8844 16.4326 11.6853 16.4604 11.5454 16.3548Z" fill="#B42222"/>
<path d="M21.1248 18.5955C20.0803 18.4707 19.3854 17.0993 19.5727 15.5325C19.76 13.9657 20.7586 12.7968 21.8032 12.9216C22.8477 13.0465 23.5426 14.4179 23.3553 15.9847C23.168 17.5515 22.1693 18.7204 21.1248 18.5955Z" fill="#FF7878"/>
<path fill-rule="evenodd" clip-rule="evenodd" d="M22.0946 15.9978C21.7451 15.9686 21.4855 15.6617 21.5147 15.3122C21.537 15.0456 21.5043 14.8021 21.4213 14.5742C21.3014 14.2447 21.4713 13.8803 21.8008 13.7604C22.1303 13.6404 22.4946 13.8103 22.6146 14.1398C22.7634 14.5486 22.817 14.9771 22.7802 15.4179C22.751 15.7674 22.444 16.027 22.0946 15.9978Z" fill="white"/>
</g>
<defs>
<filter id="filter0_df_1822_144" x="0.306152" y="0.306152" width="42.7716" height="41.3289" filterUnits="userSpaceOnUse" color-interpolation-filters="sRGB">
<feFlood flood-opacity="0" result="BackgroundImageFix"/>
<feColorMatrix in="SourceAlpha" type="matrix" values="0 0 0 0 0 0 0 0 0 0 0 0 0 0 0 0 0 0 127 0" result="hardAlpha"/>
<feOffset dx="4" dy="4"/>
<feGaussianBlur stdDeviation="6"/>
<feComposite in2="hardAlpha" operator="out"/>
<feColorMatrix type="matrix" values="0 0 0 0 0 0 0 0 0 0 0 0 0 0 0 0 0 0 0.1 0"/>
<feBlend mode="normal" in2="BackgroundImageFix" result="effect1_dropShadow_1822_144"/>
<feBlend mode="normal" in="SourceGraphic" in2="effect1_dropShadow_1822_144" result="shape"/>
<feGaussianBlur stdDeviation="0.5" result="effect2_foregroundBlur_1822_144"/>
</filter>
</defs>
</svg>
