<svg width="44" height="42" viewBox="0 0 44 42" fill="none" xmlns="http://www.w3.org/2000/svg">
<g filter="url(#filter0_df_1822_124)">
<path d="M12.7167 25.0937C13.2465 23.3568 14.4969 22.9434 15.0559 22.9538C13.5561 21.8513 12.4928 20.0541 12.1487 19.2934C11.7033 20.8128 10.1419 21.2162 9.41696 21.228C10.2606 21.8741 11.2667 21.8427 11.6644 21.7462C11.0298 22.2878 10.7413 23.1844 10.6764 23.5649C11.4956 23.4407 12.2188 23.0607 12.4779 22.8862C12.3882 23.5591 12.5997 24.6382 12.7167 25.0937Z" fill="#D72424"/>
<path fill-rule="evenodd" clip-rule="evenodd" d="M15.6574 23.1573C15.5687 23.4193 15.3207 23.5938 15.0441 23.5886C14.7583 23.5833 13.768 23.8233 13.324 25.279C13.241 25.5511 12.987 25.7348 12.7025 25.7285C12.4181 25.7221 12.1725 25.5273 12.1018 25.2517C12.0377 25.0021 11.9506 24.5944 11.8908 24.1577C11.8794 24.0743 11.8686 23.9879 11.8592 23.8996C11.537 24.0229 11.1652 24.133 10.7716 24.1927C10.5701 24.2233 10.3661 24.1552 10.2233 24.0098C10.0806 23.8643 10.0163 23.6591 10.0505 23.4582C10.0928 23.2101 10.1988 22.836 10.3822 22.4459C10.3955 22.4175 10.4093 22.3889 10.4237 22.36C9.97343 22.2684 9.48478 22.0797 9.03091 21.7321C8.81639 21.5677 8.72936 21.2857 8.81402 21.029C8.89869 20.7724 9.13649 20.5975 9.40668 20.5931C9.67979 20.5887 10.1484 20.5057 10.584 20.2685C11.0066 20.0383 11.3741 19.6787 11.5394 19.1148C11.6141 18.86 11.8395 18.6785 12.1044 18.66C12.3693 18.6415 12.6177 18.7898 12.7272 19.0317C13.047 19.7386 14.0529 21.4285 15.432 22.4423C15.6548 22.6061 15.746 22.8953 15.6574 23.1573ZM10.7789 21.7753C11.1552 21.8226 11.4772 21.7916 11.6644 21.7462C11.4345 21.9424 11.25 22.1852 11.1051 22.4332C11.0181 22.5822 10.9453 22.7331 10.8856 22.8768C10.7704 23.1542 10.7037 23.4051 10.6764 23.5649C10.9196 23.5281 11.1543 23.4687 11.3709 23.3988C11.5325 23.3466 11.6841 23.2887 11.8216 23.2299C12.1206 23.102 12.3531 22.9702 12.478 22.8862C12.4492 23.1018 12.4514 23.359 12.4715 23.6242C12.4803 23.7405 12.4925 23.8583 12.5071 23.9747C12.5631 24.4214 12.6537 24.8482 12.7167 25.0937C12.8358 24.7032 12.9914 24.3796 13.1673 24.1127C13.4981 23.6107 13.901 23.3092 14.2692 23.1401C14.5761 22.9991 14.8589 22.9502 15.0559 22.9538C14.8296 22.7875 14.6132 22.6053 14.4078 22.4132C13.5916 21.6503 12.9476 20.7317 12.5366 20.0301C12.3654 19.7379 12.2346 19.4833 12.1487 19.2934C12.067 19.572 11.9478 19.8131 11.8031 20.0211C11.4348 20.5507 10.9014 20.866 10.4014 21.0408C10.0266 21.1718 9.67061 21.2239 9.41697 21.228C9.73812 21.4739 10.0828 21.6217 10.4086 21.7051C10.5357 21.7377 10.66 21.7604 10.7789 21.7753Z" fill="#B83D53"/>
<path fill-rule="evenodd" clip-rule="evenodd" d="M15.0559 22.9538C14.4969 22.9434 13.2465 23.3568 12.7167 25.0937C12.6583 24.8661 12.5762 24.4829 12.5199 24.0724C13.0478 22.925 13.9263 22.5364 14.467 22.468C14.6547 22.6399 14.8512 22.8033 15.0559 22.9538ZM13.2632 21.1232C12.7171 20.3938 12.3315 19.6974 12.1487 19.2934C12.1325 19.3484 12.1149 19.402 12.096 19.4541C12.3743 19.9387 12.7706 20.5391 13.2632 21.1232ZM9.89785 21.1757C9.71686 21.2099 9.55233 21.2258 9.41696 21.228C9.87382 21.5779 10.3784 21.7291 10.8081 21.7788C10.9356 21.5868 11.0885 21.4035 11.2695 21.249C11.0054 21.3131 10.4729 21.3484 9.89785 21.1757ZM10.8611 22.9371C10.7608 23.1903 10.7017 23.4167 10.6764 23.5649C11.2214 23.4823 11.7239 23.2864 12.0755 23.1132C12.0564 22.8529 12.0548 22.6008 12.0831 22.389C11.8874 22.5207 11.4274 22.7696 10.8611 22.9371Z" fill="#FE3434"/>
<path d="M14.5929 10.6307C17.8879 8.01362 22.6807 8.56327 25.2977 11.8583C27.9147 15.1534 27.3651 19.9461 24.07 22.5631C20.7749 25.1802 15.9822 24.6305 13.3652 21.3355C10.7482 18.0404 11.2978 13.2477 14.5929 10.6307Z" fill="#FE3434"/>
<path fill-rule="evenodd" clip-rule="evenodd" d="M14.198 10.1334C17.7677 7.29831 22.9598 7.89376 25.7949 11.4634C28.63 15.0331 28.0345 20.2252 24.4649 23.0603C20.8952 25.8954 15.7031 25.2999 12.868 21.7303C10.0329 18.1606 10.6284 12.9685 14.198 10.1334ZM25.2977 11.8583C22.6807 8.56323 17.888 8.01358 14.5929 10.6306C11.2978 13.2476 10.7482 18.0404 13.3652 21.3354C15.9822 24.6305 20.7749 25.1801 24.07 22.5631C27.3651 19.9461 27.9147 15.1534 25.2977 11.8583Z" fill="#B83D53"/>
<path fill-rule="evenodd" clip-rule="evenodd" d="M25.2977 11.8583C22.6807 8.56327 17.8879 8.01362 14.5929 10.6307C11.2978 13.2477 10.7482 18.0404 13.3652 21.3355C14.4878 22.749 16.0109 23.6573 17.6443 24.0271C16.54 23.693 15.5227 23.031 14.7509 22.0592C12.7336 19.5193 13.1573 15.8249 15.6972 13.8076C18.2371 11.7903 21.9315 12.214 23.9488 14.754C25.9661 17.2939 25.5424 20.9883 23.0025 23.0056C22.4361 23.4554 21.8124 23.7838 21.1627 23.9945C22.1923 23.7403 23.1852 23.2659 24.07 22.5631C27.3651 19.9461 27.9147 15.1534 25.2977 11.8583Z" fill="#D72424"/>
<path d="M15.0058 13.1819C15.27 12.9721 15.6543 13.0162 15.8642 13.2804C16.074 13.5446 16.0299 13.9289 15.7657 14.1388C15.5015 14.3486 15.1172 14.3045 14.9073 14.0403C14.6975 13.7761 14.7415 13.3918 15.0058 13.1819Z" fill="#B42222"/>
<path d="M14.7628 11.5092C15.027 11.2994 15.4113 11.3434 15.6212 11.6077C15.831 11.8719 15.7869 12.2562 15.5227 12.466C15.2585 12.6759 14.8742 12.6318 14.6643 12.3676C14.4545 12.1034 14.4986 11.7191 14.7628 11.5092Z" fill="#B42222"/>
<path d="M13.3979 12.9834C13.5961 12.826 13.8843 12.859 14.0417 13.0572C14.1991 13.2554 14.166 13.5436 13.9679 13.701C13.7697 13.8584 13.4815 13.8253 13.3241 13.6272C13.1667 13.429 13.1998 13.1407 13.3979 12.9834Z" fill="#B42222"/>
<path d="M16.6685 10.4706C16.9328 10.2607 17.3171 10.3048 17.5269 10.569C17.7368 10.8332 17.6927 11.2175 17.4285 11.4274C17.1643 11.6373 16.78 11.5932 16.5701 11.329C16.3602 11.0647 16.4043 10.6804 16.6685 10.4706Z" fill="#B42222"/>
<path d="M16.9115 12.1432C17.1757 11.9334 17.5601 11.9775 17.7699 12.2417C17.9798 12.5059 17.9357 12.8902 17.6715 13.1001C17.4072 13.3099 17.0229 13.2658 16.8131 13.0016C16.6032 12.7374 16.6473 12.3531 16.9115 12.1432Z" fill="#B42222"/>
<path d="M18.6364 9.85169C18.9796 9.57908 19.4788 9.63634 19.7514 9.97957C20.0241 10.3228 19.9668 10.822 19.6236 11.0947C19.2803 11.3673 18.7811 11.31 18.5085 10.9668C18.2359 10.6235 18.2931 10.1243 18.6364 9.85169Z" fill="#B42222"/>
<path d="M19.2726 12.1841C19.4786 12.0206 19.7781 12.0549 19.9417 12.2609C20.1053 12.4668 20.0709 12.7663 19.865 12.9299C19.659 13.0935 19.3595 13.0591 19.1959 12.8532C19.0323 12.6472 19.0667 12.3477 19.2726 12.1841Z" fill="#B42222"/>
<path d="M23.2091 11.2121C23.37 11.0844 23.6039 11.1112 23.7316 11.272C23.8594 11.4329 23.8325 11.6668 23.6717 11.7945C23.5109 11.9223 23.2769 11.8954 23.1492 11.7346C23.0215 11.5738 23.0483 11.3398 23.2091 11.2121Z" fill="#B42222"/>
<path d="M20.9908 10.0087C21.2654 9.79061 21.6648 9.83641 21.8829 10.111C22.101 10.3856 22.0552 10.785 21.7806 11.0031C21.506 11.2212 21.1066 11.1754 20.8885 10.9008C20.6704 10.6262 20.7162 10.2268 20.9908 10.0087Z" fill="#B42222"/>
<path d="M20.7862 11.7929C20.9235 11.6838 21.1232 11.7067 21.2322 11.844C21.3413 11.9813 21.3184 12.181 21.1811 12.29C21.0438 12.3991 20.8441 12.3762 20.7351 12.2389C20.626 12.1016 20.6489 11.9019 20.7862 11.7929Z" fill="#B42222"/>
<path d="M16.2188 20.5063C16.6011 19.5263 18.1028 19.1968 19.5728 19.7704C21.0429 20.3439 21.9246 21.6034 21.5422 22.5834C21.1598 23.5634 19.6582 23.8929 18.1881 23.3193C16.7181 22.7458 15.8364 21.4863 16.2188 20.5063Z" fill="#FF7878"/>
<path fill-rule="evenodd" clip-rule="evenodd" d="M18.491 22.0955C18.6067 21.7645 18.9689 21.59 19.2999 21.7057C19.5525 21.794 19.7964 21.8233 20.0379 21.8001C20.3869 21.7664 20.6971 22.0221 20.7308 22.3711C20.7644 22.7202 20.5087 23.0304 20.1597 23.064C19.7266 23.1058 19.2984 23.0504 18.8808 22.9044C18.5498 22.7887 18.3753 22.4265 18.491 22.0955Z" fill="white"/>
</g>
<defs>
<filter id="filter0_df_1822_124" x="0.782043" y="0.342529" width="42.8036" height="41.3861" filterUnits="userSpaceOnUse" color-interpolation-filters="sRGB">
<feFlood flood-opacity="0" result="BackgroundImageFix"/>
<feColorMatrix in="SourceAlpha" type="matrix" values="0 0 0 0 0 0 0 0 0 0 0 0 0 0 0 0 0 0 127 0" result="hardAlpha"/>
<feOffset dx="4" dy="4"/>
<feGaussianBlur stdDeviation="6"/>
<feComposite in2="hardAlpha" operator="out"/>
<feColorMatrix type="matrix" values="0 0 0 0 0 0 0 0 0 0 0 0 0 0 0 0 0 0 0.1 0"/>
<feBlend mode="normal" in2="BackgroundImageFix" result="effect1_dropShadow_1822_124"/>
<feBlend mode="normal" in="SourceGraphic" in2="effect1_dropShadow_1822_124" result="shape"/>
<feGaussianBlur stdDeviation="1.5" result="effect2_foregroundBlur_1822_124"/>
</filter>
</defs>
</svg>
