<svg width="76" height="87" viewBox="0 0 76 87" fill="none" xmlns="http://www.w3.org/2000/svg">
<g filter="url(#filter0_d_1816_64)">
<path d="M26 12.0377C29.2464 16.7472 27.8164 20.6415 26.6957 22C32.3536 20.4604 38.8696 21.3585 41.4203 22C38.5449 17.9245 40.6087 13.283 42 11.4717C38.7536 12.2868 36.8599 14.8302 36.3188 16C36.2261 13.3736 34.5797 10.9057 33.7681 10C32.4696 12.2642 31.9903 14.7925 31.913 15.7736C30.429 14.234 27.3527 12.6415 26 12.0377Z" fill="#D72424"/>
<path fill-rule="evenodd" clip-rule="evenodd" d="M25.0155 23.0849C24.5429 22.353 24.5985 21.3993 25.1529 20.7272C25.726 20.0326 27.0741 17.1198 24.3533 13.1729C23.8446 12.4349 23.889 11.4485 24.462 10.7592C25.035 10.0699 25.9967 9.84608 26.8152 10.2114C27.5564 10.5423 28.7324 11.1262 29.927 11.8343C30.155 11.9694 30.3892 12.1123 30.6256 12.262C30.9525 11.2255 31.4094 10.0927 32.0332 9.005C32.3526 8.44804 32.92 8.0783 33.5586 8.01103C34.1971 7.94375 34.8291 8.18712 35.2576 8.66527C35.7866 9.25564 36.502 10.2499 37.105 11.4666C37.1488 11.555 37.1924 11.6452 37.2355 11.7372C38.3436 10.8061 39.7664 9.97045 41.513 9.53192C42.3385 9.32464 43.2048 9.6626 43.6719 10.3742C44.1391 11.0857 44.1046 12.015 43.5861 12.69C43.062 13.3724 42.3487 14.691 42.0805 16.2302C41.8202 17.7235 41.9873 19.3344 43.0545 20.847C43.5367 21.5305 43.5427 22.4419 43.0694 23.1316C42.5962 23.8213 41.7437 24.1436 40.9325 23.9396C38.5622 23.3435 32.4232 22.5142 27.2208 23.9298C26.3801 24.1586 25.4881 23.8168 25.0155 23.0849ZM37.9818 13.7588C37.1278 14.5945 36.5735 15.4494 36.3188 16C36.2852 15.0485 36.0477 14.1179 35.7199 13.2747C35.5229 12.7681 35.2933 12.293 35.0556 11.8641C34.5972 11.0365 34.109 10.3804 33.7681 10C33.3827 10.672 33.0695 11.3673 32.8175 12.0385C32.6295 12.5393 32.4755 13.0268 32.3512 13.4812C32.0808 14.4693 31.9503 15.301 31.913 15.7736C31.4376 15.2803 30.7987 14.7816 30.1054 14.3118C29.8012 14.1057 29.4866 13.9051 29.1708 13.7129C27.9593 12.976 26.7292 12.3632 26 12.0378C26.7299 13.0966 27.2234 14.1143 27.5372 15.0712C28.1272 16.8704 28.0817 18.4549 27.7775 19.6944C27.524 20.7277 27.0906 21.5213 26.6957 22C27.5494 21.7677 28.4227 21.5909 29.299 21.4603C32.7798 20.9416 36.3074 21.1528 38.8431 21.5134C39.8993 21.6637 40.7834 21.8398 41.4203 22C40.893 21.2527 40.5319 20.4864 40.3022 19.7219C39.7174 17.776 39.9847 15.8424 40.5331 14.2665C40.9442 13.0855 41.5133 12.1054 42 11.4717C40.7641 11.782 39.7243 12.3428 38.8805 12.9829C38.551 13.2328 38.2515 13.4948 37.9818 13.7588Z" fill="#B83D53"/>
<path fill-rule="evenodd" clip-rule="evenodd" d="M26.6957 22C27.8164 20.6415 29.2464 16.7472 26 12.0377C26.6758 12.3394 27.782 12.8879 28.9048 13.5533C30.7009 17.1032 29.9383 20.0314 29.0478 21.499C28.256 21.6252 27.4678 21.7899 26.6957 22ZM34.7234 21.1644C37.5925 21.2462 40.0656 21.6593 41.4203 22C41.3161 21.8524 41.2184 21.704 41.127 21.555C39.3864 21.2923 37.1291 21.0935 34.7234 21.1644ZM41.1868 12.7603C41.457 12.2468 41.7402 11.8099 42 11.4717C40.2418 11.9131 38.8804 12.8615 37.9158 13.824C38.1396 14.5147 38.2924 15.2509 38.3188 16C38.6782 15.2231 39.6342 13.8403 41.1868 12.7603ZM34.9549 11.6856C34.5267 10.9421 34.0841 10.3526 33.7681 10C32.9042 11.5063 32.403 13.1295 32.1414 14.3362C32.8208 14.7989 33.4458 15.2889 33.913 15.7736C33.9714 15.0329 34.2588 13.4105 34.9549 11.6856Z" fill="#FE3434"/>
<path d="M58 45.0001C58 58.2549 47.2548 69.0001 34 69.0001C20.7452 69.0001 10 58.2549 10 45.0001C10 31.7452 20.7452 21.0001 34 21.0001C47.2548 21.0001 58 31.7452 58 45.0001Z" fill="#FE3434"/>
<path fill-rule="evenodd" clip-rule="evenodd" d="M60 45.0001C60 59.3595 48.3594 71.0001 34 71.0001C19.6406 71.0001 8 59.3595 8 45.0001C8 30.6407 19.6406 19.0001 34 19.0001C48.3594 19.0001 60 30.6407 60 45.0001ZM34 69.0001C47.2548 69.0001 58 58.2549 58 45.0001C58 31.7452 47.2548 21.0001 34 21.0001C20.7452 21.0001 10 31.7452 10 45.0001C10 58.2549 20.7452 69.0001 34 69.0001Z" fill="#B83D53"/>
<path fill-rule="evenodd" clip-rule="evenodd" d="M34 69.0001C47.2548 69.0001 58 58.2549 58 45.0001C58 31.7452 47.2548 21.0001 34 21.0001C28.314 21.0001 23.0898 22.9774 18.9776 26.2819C21.9648 24.2125 25.5908 23 29.5 23C39.7173 23 48 31.2828 48 41.5C48 51.7173 39.7173 60 29.5 60C19.2827 60 11 51.7173 11 41.5C11 39.2219 11.4118 37.0398 12.165 35.0244C10.7748 38.0623 10 41.4407 10 45.0001C10 58.2549 20.7452 69.0001 34 69.0001Z" fill="#D72424"/>
<path d="M50.8981 41.0204C50.8981 42.0832 50.0364 42.9449 48.9736 42.9449C47.9107 42.9449 47.0491 42.0832 47.0491 41.0204C47.0491 39.9575 47.9107 39.0959 48.9736 39.0959C50.0364 39.0959 50.8981 39.9575 50.8981 41.0204Z" fill="#B42222"/>
<path d="M55.5 43.698C55.5 44.7609 54.6384 45.6225 53.5755 45.6225C52.5126 45.6225 51.651 44.7609 51.651 43.698C51.651 42.6351 52.5126 41.7735 53.5755 41.7735C54.6384 41.7735 55.5 42.6351 55.5 43.698Z" fill="#B42222"/>
<path d="M54.5377 37.4434C54.5377 38.2405 53.8915 38.8867 53.0944 38.8867C52.2972 38.8867 51.651 38.2405 51.651 37.4434C51.651 36.6462 52.2972 36 53.0944 36C53.8915 36 54.5377 36.6462 54.5377 37.4434Z" fill="#B42222"/>
<path d="M54.3286 50.4337C54.3286 51.4966 53.467 52.3582 52.4041 52.3582C51.3412 52.3582 50.4796 51.4966 50.4796 50.4337C50.4796 49.3708 51.3412 48.5092 52.4041 48.5092C53.467 48.5092 54.3286 49.3708 54.3286 50.4337Z" fill="#B42222"/>
<path d="M49.7265 47.7561C49.7265 48.819 48.8649 49.6806 47.8021 49.6806C46.7392 49.6806 45.8776 48.819 45.8776 47.7561C45.8776 46.6932 46.7392 45.8316 47.8021 45.8316C48.8649 45.8316 49.7265 46.6932 49.7265 47.7561Z" fill="#B42222"/>
<path d="M52 56.5C52 57.8807 50.8807 59 49.5 59C48.1193 59 47 57.8807 47 56.5C47 55.1193 48.1193 54 49.5 54C50.8807 54 52 55.1193 52 56.5Z" fill="#B42222"/>
<path d="M45 53.5C45 54.3284 44.3284 55 43.5 55C42.6716 55 42 54.3284 42 53.5C42 52.6716 42.6716 52 43.5 52C44.3284 52 45 52.6716 45 53.5Z" fill="#B42222"/>
<path d="M39.6858 65.1143C39.6858 65.7613 39.1613 66.2857 38.5143 66.2857C37.8674 66.2857 37.3429 65.7613 37.3429 65.1143C37.3429 64.4673 37.8674 63.9429 38.5143 63.9429C39.1613 63.9429 39.6858 64.4673 39.6858 65.1143Z" fill="#B42222"/>
<path d="M47 62C47 63.1046 46.1046 64 45 64C43.8954 64 43 63.1046 43 62C43 60.8954 43.8954 60 45 60C46.1046 60 47 60.8954 47 62Z" fill="#B42222"/>
<path d="M43 58C43 58.5523 42.5523 59 42 59C41.4477 59 41 58.5523 41 58C41 57.4477 41.4477 57 42 57C42.5523 57 43 57.4477 43 58Z" fill="#B42222"/>
<path d="M30.4548 29.6632C32.123 32.5263 29.9939 36.8759 25.6992 39.3783C21.4045 41.8808 16.5705 41.5883 14.9023 38.7252C13.234 35.862 15.3631 31.5124 19.6578 29.01C23.9525 26.5076 28.7865 26.8 30.4548 29.6632Z" fill="#FF7878"/>
<path fill-rule="evenodd" clip-rule="evenodd" d="M22.0831 32.1547C22.6728 33.0887 22.3938 34.3239 21.4599 34.9136C20.7473 35.3636 20.1971 35.9081 19.7815 36.5492C19.1807 37.476 17.9422 37.7403 17.0154 37.1395C16.0885 36.5386 15.8242 35.3002 16.425 34.3733C17.1705 33.2234 18.1461 32.2755 19.3241 31.5315C20.2581 30.9418 21.4933 31.2208 22.0831 32.1547Z" fill="white"/>
</g>
<defs>
<filter id="filter0_d_1816_64" x="0" y="0" width="76" height="87.0001" filterUnits="userSpaceOnUse" color-interpolation-filters="sRGB">
<feFlood flood-opacity="0" result="BackgroundImageFix"/>
<feColorMatrix in="SourceAlpha" type="matrix" values="0 0 0 0 0 0 0 0 0 0 0 0 0 0 0 0 0 0 127 0" result="hardAlpha"/>
<feOffset dx="4" dy="4"/>
<feGaussianBlur stdDeviation="6"/>
<feComposite in2="hardAlpha" operator="out"/>
<feColorMatrix type="matrix" values="0 0 0 0 0 0 0 0 0 0 0 0 0 0 0 0 0 0 0.1 0"/>
<feBlend mode="normal" in2="BackgroundImageFix" result="effect1_dropShadow_1816_64"/>
<feBlend mode="normal" in="SourceGraphic" in2="effect1_dropShadow_1816_64" result="shape"/>
</filter>
</defs>
</svg>
